<svg xmlns="http://www.w3.org/2000/svg" height="512" viewBox="0 0 60 53" width="512"><g id="Page-1" fill="none" fill-rule="evenodd"><g id="006---Payment-Denied" fill="rgb(0,0,0)" fill-rule="nonzero"><path id="Shape" d="m14 15c1.6568542 0 3-1.3431458 3-3v-4c0-1.65685425-1.3431458-3-3-3h-6c-1.65685425 0-3 1.34314575-3 3v4c0 1.6568542 1.34314575 3 3 3zm0-2h-3v-2h4v1c0 .5522847-.4477153 1-1 1zm1-5v1h-4v-2h3c.5522847 0 1 .44771525 1 1zm-7-1h1v2h-2v-1c0-.55228475.44771525-1 1-1zm-1 5v-1h2v2h-1c-.55228475 0-1-.4477153-1-1z"/><path id="Shape" d="m8 21c-.55228475 0-1 .4477153-1 1s.44771525 1 1 1h6c.5522847 0 1-.4477153 1-1s-.4477153-1-1-1z"/><path id="Shape" d="m24 21h-6c-.5522847 0-1 .4477153-1 1s.4477153 1 1 1h6c.5522847 0 1-.4477153 1-1s-.4477153-1-1-1z"/><path id="Shape" d="m10 27h-2c-.55228475 0-1 .4477153-1 1s.44771525 1 1 1h2c.5522847 0 1-.4477153 1-1s-.4477153-1-1-1z"/><path id="Shape" d="m17 27h-2c-.5522847 0-1 .4477153-1 1s.4477153 1 1 1h2c.5522847 0 1-.4477153 1-1s-.4477153-1-1-1z"/><path id="Shape" d="m37 14c1.1531473-.0035865 2.2478736-.5078904 3-1.382 1.093225 1.2628661 2.8560646 1.7134762 4.4212104 1.1301323 1.5651459-.5833438 2.6030376-2.0778115 2.6030376-3.7481323 0-1.67032082-1.0378917-3.16478849-2.6030376-3.74813234-1.5651458-.58334385-3.3279854-.13273376-4.4212104 1.13013234-1.2110928-1.38665941-3.2134336-1.76522309-4.8471665-.91640804-1.6337329.84881506-2.4750835 2.70483451-2.0366995 4.49295914.438384 1.7881246 2.0427901 3.0445323 3.883866 3.0414489zm6-6c1.1045695 0 2 .8954305 2 2s-.8954305 2-2 2-2-.8954305-2-2 .8954305-2 2-2zm-6 0c1.1045695 0 2 .8954305 2 2s-.8954305 2-2 2-2-.8954305-2-2 .8954305-2 2-2z"/><path id="Shape" d="m52 20.044v-13.044c-.0044086-3.86416566-3.1358343-6.99559136-7-7h-38c-3.86416566.00440864-6.99559136 3.13583434-7 7v21c.00440864 3.8641657 3.13583434 6.9955914 7 7h17c-.0050709 8.5887072 6.0584965 15.9845589 14.4815251 17.6633994 8.4230287 1.6788405 16.8588017-2.8270674 20.1470275-10.7613908s.5127809-17.0865023-6.6285526-21.8580086zm-45 12.956c-2.76005315-.0033061-4.99669388-2.2399468-5-5v-21c.00330612-2.76005315 2.23994685-4.99669388 5-5h38c2.7600532.00330612 4.9966939 2.23994685 5 5v11.9c-6.283305-3.1534223-13.8314844-2.3316495-19.289 2.1h-2.711c-.5522847 0-1 .4477153-1 1s.4477153 1 1 1h.622c-2.5084362 2.7809908-4.0821922 6.2782264-4.5 10zm35 18c-8.836556 0-16-7.163444-16-16s7.163444-16 16-16 16 7.163444 16 16c-.0104696 8.8322157-7.1677843 15.9895304-16 16z"/><path id="Shape" d="m43.548 32.145c2.0681329-1.7091245 4.3608113-3.1266552 6.814-4.213.5000049-.2092525.742277-.7787576.5462669-1.2841006-.1960102-.5053429-.7589366-.7625313-1.2692669-.5798994-2.7653955 1.1867142-5.3396847 2.776647-7.639 4.718-2.2993153-1.941353-4.8736045-3.5312858-7.639-4.718-.5103303-.1826319-1.0732567.0745565-1.2692669.5798994-.1960101.505343.046262 1.0748481.5462669 1.2841006 2.4531887 1.0863448 4.7458671 2.5038755 6.814 4.213-3.1599697 2.9355185-5.6710597 6.4994814-7.372 10.463-.1039737.2439982-.1067566.5193072-.0077364.7653573.0990202.2460502.2917315.4426846.5357364.5466427.1238521.0530935.2572478.0803171.392.08.4007992.0000139.7628867-.2392787.92-.608 1.6281549-3.7696643 4.0418879-7.1485496 7.08-9.911 3.0381121 2.7624504 5.4518451 6.1413357 7.08 9.911.1571133.3687213.5192008.6080139.92.608.1347522.0003171.2681479-.0269065.392-.08.2440049-.1039581.4367162-.3005925.5357364-.5466427.0990202-.2460501.0962373-.5213591-.0077364-.7653573-1.7009403-3.9635186-4.2120303-7.5274815-7.372-10.463z"/></g></g></svg>