<svg width="15px" height="15px" class="published">
    <path fill-rule="evenodd" fill="rgb(22, 177, 33)" d="M3.375,7.125 L4.425,6.075 L6.750,8.400 L13.200,1.950 L14.250,3.000 L6.750,10.500 L3.375,7.125 ZM7.500,1.500 C4.200,1.500 1.500,4.200 1.500,7.500 C1.500,10.800 4.200,13.500 7.500,13.500 C10.800,13.500 13.500,10.800 13.500,7.500 L15.000,7.500 C15.000,11.625 11.625,15.000 7.500,15.000 C3.375,15.000 -0.000,11.625 -0.000,7.500 C-0.000,3.375 3.375,-0.000 7.500,-0.000 C8.475,-0.000 9.450,0.225 10.350,0.525 L9.150,1.725 C8.625,1.575 8.100,1.500 7.500,1.500 Z"></path>
</svg>
