<?xml version="1.0" encoding="UTF-8"?>
<svg width="24px" height="24px" viewBox="0 0 24 24" version="1.1" xmlns="http://www.w3.org/2000/svg" xmlns:xlink="http://www.w3.org/1999/xlink">
    <!-- Generator: sketchtool 63.1 (101010) - https://sketch.com -->
    <title>562A1377-7580-46B4-A9A1-345CE772C58B</title>
    <desc>Created with sketchtool.</desc>
    <g id="Page-1" stroke="none" stroke-width="1" fill="none" fill-rule="evenodd">
        <g id="02_Add-Datadog-Integration" transform="translate(-659.000000, -966.000000)" fill="#727D8C" fill-rule="nonzero" stroke="#727D8C" stroke-width="0.5">
            <g id="Group-10" transform="translate(660.000000, 965.000000)">
                <g id="Alert" transform="translate(0.000000, 2.000000)">
                    <path d="M11,0 C4.92486775,0 0,4.92486775 0,11 C0,17.0751322 4.92486775,22 11,22 C17.0751322,22 22,17.0751322 22,11 C22,8.08261861 20.8410748,5.28472557 18.7781746,3.22182541 C16.7152744,1.15892524 13.9173814,0 11,0 Z M11,21.2666667 C5.32987657,21.2666667 0.733333333,16.6701234 0.733333333,11 C0.733333333,5.32987657 5.32987657,0.733333333 11,0.733333333 C16.6701234,0.733333333 21.2666667,5.32987657 21.2666667,11 C21.2666667,16.6701234 16.6701234,21.2666667 11,21.2666667 Z" id="Shape"></path>
                    <path d="M12.7783333,3.11666267 L9.22166667,3.11666267 C8.91539886,3.11584195 8.62265362,3.24274078 8.41387919,3.46682533 C8.20510476,3.69090989 8.09920584,3.99188913 8.12166667,4.29733333 L8.745,12.7306667 C8.78733752,13.3064706 9.26764373,13.7515544 9.845,13.7500041 L12.1513333,13.7500041 C12.7286896,13.7515544 13.2089958,13.3064706 13.2513333,12.7306667 L13.8746667,4.29733333 C13.8971275,3.99188913 13.7912286,3.69090989 13.5824541,3.46682533 C13.3736797,3.24274078 13.0809345,3.11584195 12.7746667,3.11666267 L12.7783333,3.11666267 Z M12.518,12.6756667 C12.5044982,12.8680843 12.3442235,13.0171398 12.1513333,13.0166678 L9.84866667,13.0166678 C9.65577646,13.0171398 9.49550177,12.8680843 9.482,12.6756667 L8.85866667,4.24233333 C8.85153608,4.14072201 8.88699548,4.04072375 8.95654679,3.96630386 C9.0260981,3.89188396 9.12347243,3.84975011 9.22533333,3.84999889 L12.7783333,3.84999889 C12.8801942,3.84975011 12.9775686,3.89188396 13.0471199,3.96630386 C13.1166712,4.04072375 13.1521306,4.14072201 13.145,4.24233333 L12.518,12.6756667 Z" id="Shape"></path>
                    <path d="M12.1,14.85 L9.9,14.85 C9.29248678,14.85 8.8,15.3424868 8.8,15.95 L8.8,17.7833333 C8.8,18.3908466 9.29248678,18.8833333 9.9,18.8833333 L12.1,18.8833333 C12.7075132,18.8833333 13.2,18.3908466 13.2,17.7833333 L13.2,15.95 C13.2,15.3424868 12.7075132,14.85 12.1,14.85 Z M12.4666667,17.7833333 C12.4666667,17.9858377 12.3025044,18.15 12.1,18.15 L9.9,18.15 C9.69749559,18.15 9.53333333,17.9858377 9.53333333,17.7833333 L9.53333333,15.95 C9.53333333,15.7474956 9.69749559,15.5833333 9.9,15.5833333 L12.1,15.5833333 C12.3025044,15.5833333 12.4666667,15.7474956 12.4666667,15.95 L12.4666667,17.7833333 Z" id="Shape"></path>
                </g>
            </g>
        </g>
    </g>
</svg>