<?xml version="1.0" encoding="UTF-8"?>
<svg width="16px" height="15px" viewBox="0 0 16 15" version="1.1" xmlns="http://www.w3.org/2000/svg" xmlns:xlink="http://www.w3.org/1999/xlink">
    <!-- Generator: Sketch 63.1 (92452) - https://sketch.com -->
    <title>Ascending Sort</title>
    <desc>Created with Sketch.</desc>
    <g id="Approved-Designs" stroke="none" stroke-width="1" fill="none" fill-rule="evenodd">
        <g id="Artboard" transform="translate(-53.000000, -19.000000)" fill-rule="nonzero" stroke-width="0.5">
            <g id="Ascending-Sort" transform="translate(61.000000, 27.000000) scale(-1, 1) rotate(-270.000000) translate(-61.000000, -27.000000) translate(54.000000, 20.000000)">
                <g id="Group">
                    <path d="M12.4610554,10.3970588 L10.193763,8.12976642 C10.0530594,7.98906278 10.0530594,7.76093722 10.193763,7.62023358 C10.3344666,7.47953001 10.5625922,7.47953001 10.7032958,7.62023358 L13.5856488,10.5025865 C13.7263523,10.6432902 13.7263523,10.8714157 13.5856488,11.0121194 L10.7032958,13.8944723 C10.5625922,14.0351759 10.3344666,14.0351759 10.193763,13.8944723 C10.0530594,13.7537687 10.0530594,13.5256431 10.193763,13.3849395 L12.4610554,11.1176471 L1.08088235,11.1176471 C0.88189741,11.1176471 0.720588235,10.9563379 0.720588235,10.7573529 C0.720588235,10.558368 0.88189741,10.3970588 1.08088235,10.3970588 L12.4610554,10.3970588 Z" id="Shape" stroke="#1C2B39" fill="#1C2B39"></path>
                    <path d="M1.23012106,2.88235294 L12.6102941,2.88235294 C12.8092791,2.88235294 12.9705882,3.04366212 12.9705882,3.24264706 C12.9705882,3.441632 12.8092791,3.60294118 12.6102941,3.60294118 L1.23012106,3.60294118 L3.49741347,5.87023358 C3.63811708,6.01093722 3.63811708,6.23906278 3.49741347,6.37976642 C3.35670986,6.52046999 3.12858425,6.52046999 2.98788065,6.37976642 L0.105527704,3.49741347 C-0.0351759038,3.35670986 -0.0351759038,3.12858425 0.105527704,2.98788065 L2.98788065,0.105527704 C3.12858425,-0.0351759038 3.35670986,-0.0351759038 3.49741347,0.105527704 C3.63811708,0.246231312 3.63811708,0.474356923 3.49741347,0.615060531 L1.23012106,2.88235294 Z" id="Path" stroke="#22C7E3" fill="#22C7E3"></path>
                </g>
            </g>
        </g>
    </g>
</svg>