<svg width="16px" height="16px" viewBox="0 0 513.613 513.613">
    <path d="M257.509,57.062c-123.712,0-224,100.288-224,224s100.288,224,224,224s224-100.288,224-224S381.221,57.062,257.509,57.062z
                                         M257.509,441.062c-88.366,0-160-71.634-160-160s71.634-160,160-160s160,71.634,160,160S345.875,441.062,257.509,441.062z"/>
    <path d="M506.47,79.782v0.16c-20.318-25.124-44.323-47.025-71.2-64.96c-14.124-10.623-34.185-7.785-44.809,6.339
                                        c-10.623,14.124-7.785,34.185,6.339,44.809c0.946,0.712,1.931,1.37,2.95,1.973c21.492,14.373,40.694,31.903,56.96,52
                                        c11.134,13.741,31.299,15.854,45.04,4.72C515.49,113.688,517.604,93.523,506.47,79.782z"/>
    <path d="M126.531,24.271C117.537,9.058,97.913,4.016,82.7,13.01c-1.019,0.602-2.004,1.261-2.95,1.973
                                        c-26.805,17.967-50.753,39.865-71.04,64.96c-12.119,12.863-11.517,33.115,1.346,45.235s33.115,11.517,45.235-1.346
                                        c1.098-1.165,2.107-2.412,3.019-3.728c16.262-20.1,35.465-37.631,56.96-52C130.483,59.108,135.525,39.484,126.531,24.271z"/>
    <path d="M343.59,210.342c-12.504-12.504-32.776-12.504-45.28,0l0.64,0.16l-41.44,41.76l-57.92-57.92
                                        c-12.504-12.504-32.776-12.504-45.28,0s-12.504,32.776,0,45.28l80,80c12.49,12.504,32.751,12.515,45.255,0.025
                                        c0.008-0.008,0.017-0.017,0.025-0.025l64-64C356.093,243.118,356.093,222.846,343.59,210.342z"/>
</svg>
