<svg width="12px" height="12px">
    <path fill-rule="evenodd" stroke="rgb(0, 0, 0)" stroke-width="0px" stroke-linecap="butt" stroke-linejoin="miter" fill="rgb(24, 41, 69)" d="M6.000,12.000 C2.700,12.000 -0.000,9.300 -0.000,6.000 C-0.000,2.700 2.700,-0.000 6.000,-0.000 C9.300,-0.000 12.000,2.700 12.000,6.000 C12.000,9.300 9.300,12.000 6.000,12.000 ZM6.000,1.200 C3.360,1.200 1.200,3.360 1.200,6.000 C1.200,8.640 3.360,10.800 6.000,10.800 C8.640,10.800 10.800,8.640 10.800,6.000 C10.800,3.360 8.640,1.200 6.000,1.200 ZM5.400,6.600 L5.400,3.000 L6.300,3.000 L6.300,6.120 L9.000,7.740 L8.520,8.520 L5.400,6.600 Z"></path>
</svg>