<?xml version="1.0" encoding="UTF-8"?>
<svg width="16px" height="16px" viewBox="0 0 16 16" version="1.1" xmlns="http://www.w3.org/2000/svg" xmlns:xlink="http://www.w3.org/1999/xlink">
    <!-- Generator: sketchtool 63.1 (101010) - https://sketch.com -->
    <title>0F9EFE2E-4128-47BF-8477-5C7D5D73F838</title>
    <desc>Created with sketchtool.</desc>
    <g id="Page-1" stroke="none" stroke-width="1" fill="none" fill-rule="evenodd">
        <g id="03_Copy-Information" transform="translate(-1045.000000, -437.000000)" fill="#0071EA" fill-rule="nonzero" stroke="#0071EA" stroke-width="0.3">
            <g id="Group-6" transform="translate(575.000000, 250.000000)">
                <path d="M476.630435,191.79237 C480.044865,191.79237 482.080914,191.919481 483.290728,192.129186 C484.001514,192.252392 484.435752,192.406989 484.700772,192.577488 C485.078024,192.82019 485.15003,193.098275 485.15003,193.393131 L485.15003,193.393131 L485.15003,200.549239 C485.15003,200.99032 484.975299,201.389939 484.693517,201.679384 C484.410296,201.970306 484.019079,202.15 483.587674,202.15 L483.587674,202.15 L476.630435,202.15 C476.199029,202.15 475.807813,201.970306 475.524592,201.679384 C475.242809,201.389939 475.068078,200.99032 475.068078,200.549239 L475.068078,200.549239 L475.068078,193.393131 C475.068078,192.95205 475.242809,192.552431 475.524592,192.262986 C475.807813,191.972064 476.199029,191.79237 476.630435,191.79237 Z M483.587674,192.483149 L476.630435,192.483149 C476.385195,192.483149 476.165104,192.583212 476.006338,192.746296 C475.846143,192.910847 475.748513,193.139138 475.748513,193.393131 L475.748513,200.549239 C475.748513,200.803237 475.846141,201.031527 476.006334,201.196076 C476.165101,201.35916 476.385194,201.459221 476.630435,201.459221 L483.587674,201.459221 C483.832915,201.459221 484.053008,201.35916 484.211775,201.196076 C484.371968,201.031527 484.469596,200.803237 484.469596,200.549239 L484.469596,193.393131 C484.469596,193.139138 484.371966,192.910847 484.211771,192.746296 C484.053004,192.583212 483.832913,192.483149 483.587674,192.483149 Z M472.412322,187.850188 C471.980927,187.850188 471.589712,188.02985 471.306495,188.320737 C471.024725,188.610138 470.85,189.009702 470.85,189.450761 L470.85,196.606869 C470.85,197.047951 471.024732,197.447579 471.306517,197.737033 C471.592515,198.030814 471.988636,198.211175 472.42506,198.207609 L476.577455,197.516866 L472.412357,197.516866 C472.167118,197.516866 471.947029,197.416801 471.788262,197.253715 C471.628066,197.08916 471.530435,196.860864 471.530435,196.606869 L471.530435,189.450761 C471.530435,189.196767 471.628064,188.968477 471.788259,188.803926 C471.947026,188.640842 472.167117,188.540779 472.412357,188.540779 L479.364878,188.540779 C479.610118,188.540779 479.830209,188.640842 479.988975,188.803926 C480.15222,188.97161 480.250495,189.205483 480.246694,189.465295 L480.92725,192.820657 L480.92725,189.450761 C480.92725,189.155913 480.855235,188.877841 480.478178,188.635154 C480.213272,188.464651 479.779236,188.310053 479.068805,188.186857 C477.859636,187.977173 475.824728,187.850105 472.412322,187.850188 Z" id="copy"></path>
            </g>
        </g>
    </g>
</svg>