<?xml version="1.0" encoding="UTF-8"?>
<svg width="57px" height="60px" viewBox="0 0 57 60" version="1.1" xmlns="http://www.w3.org/2000/svg" xmlns:xlink="http://www.w3.org/1999/xlink">
    <!-- Generator: sketchtool 63.1 (101010) - https://sketch.com -->
    <title>9F0F7542-E179-4650-9999-70D10267131E</title>
    <desc>Created with sketchtool.</desc>
    <g id="Page-1" stroke="none" stroke-width="1" fill="none" fill-rule="evenodd">
        <g id="02_Add-Datadog-Integration" transform="translate(-1032.000000, -275.000000)" fill="#632CA6" fill-rule="nonzero">
            <g id="datadog-1" transform="translate(1032.000000, 275.000000)">
                <path d="M46.9502146,42.6003267 L41.9609051,39.3093714 L37.7987116,46.2617683 L32.9578768,44.8463564 L28.695533,51.3519285 L28.9140429,53.3997585 L52.0886991,49.1297108 L50.742622,34.6499279 L46.9502146,42.6003267 Z M25.3380443,36.3573867 L29.0562144,35.8461295 C29.657817,36.1164655 30.0766277,36.2194173 30.7979905,36.4029096 C31.9213555,36.6956568 33.2219096,36.9764981 35.1478783,36.0058099 C35.5961038,35.7837982 36.5296733,34.9300688 36.9071632,34.443324 L52.1412255,31.679734 L53.6953071,50.4883942 L27.5966803,55.1919599 L25.3380443,36.3573867 Z M53.6364776,29.5800779 L52.1328213,29.866522 L49.2438682,0.0189095109 L0.0189095109,5.7267804 L6.0832597,54.9391328 L11.8450577,54.1029122 C11.3849263,53.4459817 10.6684659,52.6510819 9.44495053,51.6334701 C7.74799701,50.223661 8.3481989,47.8291566 9.34900227,46.3170961 C10.6733684,43.7622111 17.4969004,40.515378 17.110306,36.431624 C16.9716362,34.9468772 16.7356175,33.013905 15.3573243,31.6895389 C15.3054982,32.2393154 15.3986451,32.7687817 15.3986451,32.7687817 C15.3986451,32.7687817 14.8327604,32.0467185 14.5505185,31.0620233 C14.2703776,30.6845334 14.050467,30.5640728 13.7528173,30.0598192 C13.5406105,30.6432126 13.5686246,31.3197529 13.5686246,31.3197529 C13.5686246,31.3197529 13.1056918,30.2258027 13.0307541,29.3027384 C12.756216,29.7159462 12.6868811,30.5010411 12.6868811,30.5010411 C12.6868811,30.5010411 12.0852785,28.7767739 12.2225476,27.8481068 C11.9480095,27.0399003 11.1342002,25.4360936 11.3646161,21.7907601 C12.8668717,22.8433895 16.173935,22.5933638 17.4625832,20.6940085 C17.8904984,20.0650921 18.1832456,18.3478284 17.2489757,14.9644267 C16.6487738,12.7947354 15.1626264,9.56401041 14.583435,8.33839397 L14.5141002,8.38811898 C14.8194537,9.37561566 15.4490704,11.4458569 15.690692,12.4494617 C16.4218597,15.493893 16.6179583,16.5535259 16.2747857,17.9570319 C15.9827388,19.1770455 15.2823866,19.9754471 13.5069936,20.8676958 C11.7316006,21.762746 9.37561566,19.5846505 9.22644063,19.4641899 C7.50147302,18.0900988 6.16730197,15.8482712 6.01812694,14.7592235 C5.86334909,13.5672239 6.7051725,12.8514639 7.12958597,11.8765736 C6.52238056,12.0502609 5.84513993,12.3584159 5.84513993,12.3584159 C5.84513993,12.3584159 6.65334644,11.5221953 7.6499477,10.7987314 C8.06245518,10.5255941 8.30477706,10.3519067 8.73969581,9.99052494 C8.11007913,9.98001965 7.59882198,9.99822881 7.59882198,9.99822881 C7.59882198,9.99822881 8.64865001,9.43094349 9.73699742,9.01773565 C8.94069691,8.98271804 8.17871365,9.01213284 8.17871365,9.01213284 C8.17871365,9.01213284 10.5213919,7.96440586 12.3717226,7.19541908 C13.6442627,6.67365665 14.8873879,6.82773415 15.5856391,7.8376421 C16.5024002,9.16060751 17.4653846,9.87916893 19.506211,10.324593 C20.7591412,9.76921362 21.1401329,9.4834699 22.7145247,9.05485432 C24.1005218,7.53088781 25.1888693,7.33338848 25.1888693,7.33338848 C25.1888693,7.33338848 24.6488977,7.82853752 24.5046251,8.60662888 C25.2904203,7.98751748 26.1518536,7.47065752 26.1518536,7.47065752 C26.1518536,7.47065752 25.8184859,7.88246465 25.5075295,8.53659365 L25.5796658,8.64374755 C26.4964269,8.09397103 27.574269,7.66045298 27.574269,7.66045298 C27.574269,7.66045298 27.266114,8.04984884 26.9047323,8.55410246 C27.59598,8.54849964 28.9980852,8.58351725 29.5422589,8.64514825 C32.7547747,8.71588383 33.42151,5.21412255 34.65413,4.77500168 C36.1977064,4.22382446 36.8875533,3.89045678 39.5180764,6.47405626 C41.7753117,8.69207185 43.5387987,12.6623688 42.6633584,13.5518162 C41.9293892,14.2899874 40.4810608,13.2639714 38.8758534,11.263065 C38.0277268,10.203432 37.3862042,8.95120219 37.085753,7.35930151 C36.8322255,6.01602588 35.8454292,5.23653382 35.8454292,5.23653382 C35.8454292,5.23653382 36.4183173,6.50977422 36.4183173,7.63453995 C36.4183173,8.24874888 36.4953561,10.5452039 37.4800514,11.8338521 C37.3827024,12.0222468 37.3371795,12.7660209 37.2293252,12.9081924 C36.083549,11.523596 33.6232115,10.5325976 33.2219096,10.2405507 C34.5798927,11.3534104 37.7013627,13.9096962 38.9003657,16.3595284 C40.034236,18.6762936 39.3661,20.7997617 39.9396885,21.3495382 C40.1028706,21.5071174 42.378315,24.3421434 42.8160352,25.7666599 C43.5794192,28.2494086 42.8615581,30.8582208 41.8621554,32.4767348 L39.0712517,32.9116536 C38.6629463,32.7981965 38.3877079,32.741468 38.0214236,32.5292613 C38.2231251,32.1720816 38.6244269,31.2812335 38.6286291,31.0977412 L38.4710498,30.8211021 C37.602613,32.051621 36.147281,33.246422 34.938473,33.9327672 C33.3563773,34.8292181 31.53266,34.6912487 30.3455629,34.3235637 C26.9761682,33.284241 23.7902658,31.0073958 23.0219794,30.409295 C23.0219794,30.409295 22.9981674,30.8869352 23.1431403,30.9940891 C23.9926676,31.952171 25.9389465,33.6855428 27.8200927,34.8936505 L23.8098757,35.3348724 L25.7057292,50.0968973 C24.8653065,50.2173578 24.7343406,50.2761874 23.8140778,50.4071533 C23.0030699,47.5420122 21.4517896,45.6713713 19.7562368,44.5816232 C18.2609847,43.6207399 16.1984473,43.4043311 14.2241543,43.7951277 L14.0973906,43.9422016 C15.470081,43.7993298 17.0906961,43.9982298 18.7554334,45.05226 C20.3893552,46.0852795 21.7060175,48.7536216 22.1906612,50.3602297 C22.8111733,52.4136625 23.2404893,54.6099672 21.5701491,56.9379381 C20.3816514,58.5928705 16.9121063,59.5075305 14.1092966,57.5290354 C14.8579731,58.7329409 15.8699821,59.7176362 17.2321673,59.9032295 C19.2547846,60.1777676 21.1744501,59.8268912 22.4960148,58.4703088 C23.6242823,57.3105255 24.2223831,54.8852056 24.0648039,52.331021 L25.8500018,52.0718906 L26.4943259,56.6563965 L56.0477904,53.0979067 L53.6364776,29.5800779 Z M35.6563341,17.1299158 C35.5736925,17.3183106 35.4441273,17.4415726 35.6388253,18.0543808 L35.6507313,18.0893984 L35.6815468,18.1685382 L35.7627876,18.3520305 C36.1136641,19.0691912 36.4988578,19.7457315 37.1424816,20.0910052 C37.3091654,20.0629911 37.4814521,20.0440816 37.6600419,20.034977 C38.2644459,20.0083636 38.6461379,20.1043119 38.8884597,20.2345774 C38.9101707,20.1141168 38.9150731,19.937628 38.9017664,19.6777973 C38.8548428,18.7694405 39.081757,17.2244634 37.3357788,16.4113544 C36.6767473,16.1053005 35.7522823,16.199848 35.4441273,16.58154 C35.5001555,16.5885435 35.5505809,16.6004495 35.5898006,16.6137562 C36.0555349,16.7769383 35.739676,16.937319 35.6563341,17.1299158 M40.5496953,25.6055788 C40.3206801,25.4795154 39.2505419,25.5292405 38.4983635,25.6188855 C37.0654428,25.7876704 35.5183647,26.2849205 35.1793942,26.5496537 C34.5630842,27.0258932 34.8432251,27.856511 35.2984541,28.1975825 C36.5751962,29.1514623 37.6943591,29.7908839 38.8758534,29.6354057 C39.6014183,29.5401578 40.2408399,28.3915801 40.6939679,27.349456 C41.0042239,26.6315949 41.0042239,25.8570053 40.5496953,25.6055788 M27.8635145,18.2546816 C28.2676178,17.8708885 25.8507021,17.3666349 23.9751588,18.6454781 C22.5919631,19.5888526 22.5478409,21.6114699 23.872207,22.7579466 C24.0045736,22.8714036 24.1138285,22.9519441 24.21608,23.0177773 C24.6026744,22.8356857 25.043196,22.651493 25.550251,22.4869102 C26.4067818,22.2088704 27.1190401,22.0652982 27.7045346,21.9889598 C27.9846755,21.6759023 28.3103393,21.1247251 28.2290984,20.1267231 C28.1184427,18.7729422 27.0924267,18.9879504 27.8635145,18.2546816" id="Shape"></path>
            </g>
        </g>
    </g>
</svg>