<svg width="15px" height="17px" class="draft">
    <path fill-rule="evenodd" fill="rgb(253, 189, 97)" d="M13.421,17.000 L4.737,17.000 C3.868,17.000 3.158,16.305 3.158,15.455 L3.158,4.636 C3.158,3.786 3.868,3.091 4.737,3.091 L13.421,3.091 C14.289,3.091 15.000,3.786 15.000,4.636 L15.000,15.455 C15.000,16.305 14.289,17.000 13.421,17.000 ZM13.421,4.636 L4.737,4.636 L4.737,15.455 L13.421,15.455 L13.421,4.636 ZM1.579,12.364 L-0.000,12.364 L-0.000,1.545 C-0.000,0.695 0.711,-0.000 1.579,-0.000 L11.053,-0.000 L11.053,1.545 L1.579,1.545 L1.579,12.364 Z"></path>
</svg>
