<?xml version="1.0" encoding="UTF-8"?>
<svg width="18px" height="18px" viewBox="0 0 18 18" version="1.1" xmlns="http://www.w3.org/2000/svg" xmlns:xlink="http://www.w3.org/1999/xlink">
    <!-- Generator: sketchtool 63.1 (101010) - https://sketch.com -->
    <title>282A5B68-2262-467C-99B2-53EDB66B5E11</title>
    <desc>Created with sketchtool.</desc>
    <g id="Page-1" stroke="none" stroke-width="1" fill="none" fill-rule="evenodd">
        <g id="01_Integrations_UI" transform="translate(-1741.000000, -507.000000)" fill="#94A0B0" fill-rule="nonzero" stroke="#94A0B0" stroke-width="0.5">
            <g id="filter" transform="translate(1742.000000, 508.000000)">
                <path d="M0.944418932,0.944418932 L0.944418932,2.15797888 L6.45153515,7.66791732 C6.53946552,7.75607026 6.58885733,7.87549021 6.58888378,8 L6.58888378,13.3537749 L9.41111622,14.7648911 L9.41111622,8 C9.41114267,7.87549021 9.46053448,7.75607026 9.54846485,7.66791732 L15.0555811,2.15797888 L15.0555811,0.944418932 L0.944418932,0.944418932 Z M5.64813965,8.19473405 L0.141023434,2.68573633 C0.0530930606,2.5975834 0.00367477814,2.47816345 0.00367477814,2.35365366 L0.00367477814,0.474046842 C0.00367477814,0.214267525 0.214267525,0.00367477814 0.474046842,0.00367477814 L15.5259532,0.00367477814 C15.7857325,0.00367477814 15.9963252,0.214267525 15.9963252,0.474046842 L15.9963252,2.35365366 C15.9963252,2.47816345 15.9469069,2.5975834 15.8589766,2.68573633 L10.3518603,8.19473405 L10.3518603,15.5259532 C10.3518549,15.6890444 10.2673676,15.8404938 10.1285948,15.9261726 C9.98982203,16.0118514 9.81657062,16.0195306 9.67076159,15.9464658 L5.90778503,14.0649775 C5.74863891,13.9852294 5.64814562,13.822474 5.64813965,13.6444648 L5.64813965,8.19473405 Z" id="Shape"></path>
            </g>
        </g>
    </g>
</svg>