<?xml version="1.0" encoding="UTF-8"?>
<svg width="36px" height="33px" viewBox="0 0 36 33" version="1.1" xmlns="http://www.w3.org/2000/svg" xmlns:xlink="http://www.w3.org/1999/xlink">
    <!-- Generator: sketchtool 63.1 (101010) - https://sketch.com -->
    <title>49385C64-92C3-4E88-B9C6-7AD7FD53DE03</title>
    <desc>Created with sketchtool.</desc>
    <g id="Page-1" stroke="none" stroke-width="1" fill="none" fill-rule="evenodd">
        <g id="02_Add-Datadog-Integration" transform="translate(-942.000000, -289.000000)" fill="#727D8C" fill-rule="nonzero" stroke="#727D8C">
            <g id="arrows" transform="translate(960.455844, 305.091883) rotate(-45.000000) translate(-960.455844, -305.091883) translate(941.955844, 286.591883)">
                <path d="M22.9794828,33.5228412 L22.9794828,26.3363067 C22.9794828,25.8130895 23.403634,25.3889383 23.9268512,25.3889383 C24.4500684,25.3889383 24.8742196,25.8130895 24.8742196,26.3363067 L24.8742196,35.8099909 C24.8742196,36.3332081 24.4500684,36.7573593 23.9268512,36.7573593 L14.453167,36.7573593 C13.9299499,36.7573593 13.5057986,36.3332081 13.5057986,35.8099909 C13.5057986,35.2867737 13.9299499,34.8626225 14.453167,34.8626225 L21.6397015,34.8626225 L0.520118474,13.7430394 C0.150148085,13.373069 0.150148085,12.7732285 0.520118474,12.4032582 C0.890088864,12.0332878 1.48992935,12.0332878 1.85989974,12.4032582 L22.9794828,33.5228412 Z M13.5057986,3.99187742 L13.5057986,11.1784119 C13.5057986,11.7016291 13.0816473,12.1257804 12.5584302,12.1257804 C12.035213,12.1257804 11.6110617,11.7016291 11.6110617,11.1784119 L11.6110617,1.70472773 C11.6110617,1.18151061 12.035213,0.757359313 12.5584302,0.757359313 L22.0321144,0.757359313 C22.5553316,0.757359313 22.9794828,1.18151061 22.9794828,1.70472773 C22.9794828,2.22794486 22.5553316,2.65209615 22.0321144,2.65209615 L14.8455798,2.65209615 L35.9651629,23.7716792 C36.3351332,24.1416497 36.3351332,24.74149 35.9651629,25.1114605 C35.5951924,25.4814308 34.9953521,25.4814308 34.6253816,25.1114605 L13.5057986,3.99187742 Z" id="Shape"></path>
            </g>
        </g>
    </g>
</svg>