<?xml version="1.0" encoding="UTF-8"?>
<svg width="48px" height="52px" viewBox="0 0 48 52" version="1.1" xmlns="http://www.w3.org/2000/svg" xmlns:xlink="http://www.w3.org/1999/xlink">
    <!-- Generator: sketchtool 63.1 (101010) - https://sketch.com -->
    <title>A1902C46-1B1C-4BED-844A-551F9DDEF89C</title>
    <desc>Created with sketchtool.</desc>
    <g id="Page-1" stroke="none" stroke-width="1" fill="none" fill-rule="evenodd">
        <g id="07_Delete-Datadog-Integration" transform="translate(-936.000000, -374.000000)" fill="#E02020" fill-rule="nonzero" stroke="#E02020" stroke-width="0.2">
            <g id="Group-2" transform="translate(460.000000, 300.000000)">
                <g id="Trash" transform="translate(477.000000, 75.000000)">
                    <path d="M44.6268657,7.67045455 L31.0328358,7.67045455 L31.0328358,4.26136364 C31.0328358,1.90787749 29.1885163,-4.41400388e-13 26.9134328,-4.41400388e-13 L19.0865672,-4.41400388e-13 C16.8114837,-4.41400388e-13 14.9671642,1.90787749 14.9671642,4.26136364 L14.9671642,7.67045455 L1.37313433,7.67045455 C0.614773179,7.67045455 7.71160913e-14,8.30641371 7.71160913e-14,9.09090909 C7.71160913e-14,9.87540447 0.614773179,10.5113636 1.37313433,10.5113636 L6.24776119,10.5113636 L6.24776119,42.8977273 C6.24776119,44.7813671 6.97110667,46.587858 8.25866986,47.9197925 C9.54623306,49.251727 11.2925435,50 13.1134328,50 L32.8865672,50 C36.6783729,50 39.7522388,46.8202042 39.7522388,42.8977273 L39.7522388,10.5113636 L44.6268657,10.5113636 C45.3852268,10.5113636 46,9.87540447 46,9.09090909 C46,8.30641371 45.3852268,7.67045455 44.6268657,7.67045455 Z M17.7134328,4.26136364 C17.7134328,3.47686825 18.328206,2.84090909 19.0865672,2.84090909 L26.9134328,2.84090909 C27.671794,2.84090909 28.2865672,3.47686825 28.2865672,4.26136364 L28.2865672,7.67045455 L17.7134328,7.67045455 L17.7134328,4.26136364 Z M36.9373134,42.96875 C36.9373134,45.3222361 35.0929939,47.2301136 32.8179104,47.2301136 L13.1134328,47.2301136 C10.8383494,47.2301136 8.99402985,45.3222361 8.99402985,42.96875 L8.99402985,10.5113636 L37.0059701,10.5113636 L36.9373134,42.96875 Z" id="Shape"></path>
                    <g id="Group-11" transform="translate(16.696296, 16.562500)">
                        <path d="M11.5851852,25 C12.3379288,25 12.9481481,24.339653 12.9481481,23.5250737 L12.9481481,1.47492625 C12.9481481,0.660346977 12.3379288,-1.42108547e-12 11.5851852,-1.42108547e-12 C10.8324415,-1.42108547e-12 10.2222222,0.660346977 10.2222222,1.47492625 L10.2222222,23.5250737 C10.2222222,24.339653 10.8324415,25 11.5851852,25 Z" id="Path"></path>
                        <path d="M1.36296296,25 C2.11570662,25 2.72592593,24.339653 2.72592593,23.5250737 L2.72592593,1.47492625 C2.72592593,0.660346977 2.11570662,-1.42108547e-12 1.36296296,-1.42108547e-12 C0.610219304,-1.42108547e-12 6.97279271e-13,0.660346977 6.97279271e-13,1.47492625 L6.97279271e-13,23.5250737 C6.97279271e-13,24.339653 0.610219304,25 1.36296296,25 Z" id="Path"></path>
                    </g>
                </g>
            </g>
        </g>
    </g>
</svg>