<?xml version="1.0" encoding="UTF-8"?>
<svg width="62px" height="50px" viewBox="0 0 62 50" version="1.1" xmlns="http://www.w3.org/2000/svg" xmlns:xlink="http://www.w3.org/1999/xlink">
    <!-- Generator: sketchtool 63.1 (101010) - https://sketch.com -->
    <title>0170E7B1-B183-4DAA-A488-AEF03070E88F</title>
    <desc>Created with sketchtool.</desc>
    <g id="Page-1" stroke="none" stroke-width="1" fill="none" fill-rule="evenodd">
        <g id="01_Integrations_UI" transform="translate(-1179.000000, -209.000000)" fill-rule="nonzero">
            <g id="Group-7" transform="translate(1154.000000, 184.000000)">
                <g id="new-relic" transform="translate(25.000000, 25.000000)">
                    <path d="M29.7471735,41.6067201 C20.3787289,41.6067201 12.7872328,34.0130549 12.7872328,24.6448513 C12.7872328,15.2792988 20.3789699,7.68683868 29.7471735,7.68683868 C39.112967,7.68683868 46.7063911,15.2792988 46.7063911,24.6448513 C46.7063911,34.0128139 39.112967,41.6067201 29.7471735,41.6067201 Z M61.2687889,18.391188 C58.3752526,5.0875725 42.4220003,-2.73794191 25.634862,0.912117087 C8.84796474,4.56217609 -2.41648607,18.3063533 0.476809292,31.6087638 C3.36938163,44.9121383 19.3231159,52.7376527 36.1102542,49.0875937 C52.8973925,45.4372937 64.1608793,31.6931164 61.26903,18.391188 L61.2687889,18.391188 Z" id="Shape" fill="#37808C"></path>
                    <path d="M29.668123,41.284493 C20.4577793,41.284493 12.9942582,33.8190438 12.9942582,24.6091822 C12.9942582,15.4012486 20.4577793,7.93700449 29.668123,7.93700449 C38.8758156,7.93700449 46.3410237,15.4012486 46.3410237,24.6089412 C46.3410237,33.8190438 38.8758156,41.284493 29.668123,41.284493 Z M33.8927439,3.60658124 C21.9146698,3.60658124 12.2020665,13.3179795 12.2020665,25.2962947 C12.2020665,37.2753328 21.9146698,46.9869721 33.8927439,46.9869721 C45.870336,46.9869721 55.5834214,37.2753328 55.5834214,25.2962947 C55.5834214,13.3182206 45.870336,3.60658124 33.8927439,3.60658124 Z" id="Shape" fill="#9BD3CD"></path>
                    <g id="Group" transform="translate(18.680975, 14.726138)" fill="#1B1A19">
                        <path d="M4.96629751,8.1326062 L3.14717269,4.31842107 C2.71311814,3.41464285 2.2670132,2.39373496 2.11445544,1.91244293 L2.07926834,1.94763003 C2.13807418,2.62847629 2.14988355,3.48525805 2.16145191,4.20105041 L2.20844837,8.1326062 L0.882183952,8.1326062 L0.882183952,0.0113755553 L2.4077616,0.0113755553 L4.37920317,3.97811844 C4.75493391,4.7290979 5.1070459,5.69144096 5.2126072,6.06693068 L5.2477943,6.03174358 C5.2126072,5.62106676 5.13042363,4.45916947 5.13042363,3.71975838 L5.1070459,0.0113755553 L6.38631386,0.0113755553 L6.38631386,8.1326062 L4.96629751,8.1326062 M9.94213891,3.02734375 C9.21429618,3.02734375 8.81542872,3.60238771 8.81542872,4.56497177 L11.0100433,4.56497177 C11.0100433,3.60238771 10.5875571,3.02734375 9.94213891,3.02734375 Z M8.80361935,5.51550546 L8.80361935,5.6094984 C8.80361935,6.43085205 9.10897589,7.29920217 10.2706322,7.29920217 C10.8222984,7.29920217 11.3035904,7.09988894 11.7494544,6.71258985 L12.2541241,7.4987564 C11.6323247,8.02680389 10.9160503,8.28516396 10.1183154,8.28516396 C8.439939,8.28516396 7.383603,7.07627021 7.383603,5.17496182 C7.383603,4.13067621 7.60677597,3.43802058 8.1230141,2.85140826 C8.60430613,2.29974203 9.19091845,2.05319133 9.94213891,2.05319133 C10.5287512,2.05319133 11.0688491,2.2059901 11.5732779,2.66366339 C12.089757,3.13314605 12.347876,3.86074778 12.347876,5.24557703 L12.347876,5.51550546 L8.80361935,5.51550546 Z M19.2132165,8.15598393 L18.0040817,8.15598393 L17.27648,5.42151252 C17.0887351,4.71728853 16.8891809,3.80194194 16.8891809,3.80194194 L16.8658032,3.80194194 C16.8658032,3.80194194 16.7718102,4.38879527 16.4785041,5.48031836 L15.7627117,8.15598393 L14.5538179,8.15598393 L12.9342474,2.2763643 L14.2135153,2.1004288 L14.8589335,4.9756486 C14.9715273,5.4937156 15.0732548,6.0140847 15.164049,6.53641335 L15.1994771,6.53641335 C15.1994771,6.53641335 15.3166068,5.76181515 15.5395387,4.94022049 L16.3025686,2.19418073 L17.5700271,2.19418073 L18.238823,4.8698463 C18.4853737,5.83218935 18.6145538,6.56003208 18.6145538,6.56003208 L18.6497409,6.56003208 C18.6497409,6.56003208 18.7904893,5.65625386 18.943047,4.96383923 L19.5532781,2.19418073 L20.8913519,2.19418073 L19.2129755,8.15598393 M2.06914602,11.5558771 L1.32973493,11.5558771 L1.32973493,14.1262224 L2.02214956,14.1262224 C2.72637355,14.1262224 3.10186328,14.0322295 3.34841398,13.7859198 C3.57134594,13.5627468 3.71233534,13.2224442 3.71233534,12.799958 C3.71233534,11.9783633 3.26647142,11.5558771 2.06914602,11.5558771 Z M3.94659466,18.5858257 L3.24285268,17.3301765 C2.67937708,16.3324053 2.30388736,15.7691707 1.85802343,15.3230658 C1.70522466,15.170508 1.588095,15.0885654 1.32973493,15.0767561 L1.32973493,18.5858257 L0.00371151592,18.5858257 L0.00371151592,10.464595 L2.47982285,10.464595 C4.29894766,10.464595 5.12054232,11.52069 5.12054232,12.7881486 C5.12054232,13.9500459 4.36932186,15.0179502 3.10186328,15.0179502 C3.39541045,15.170508 3.9350263,15.9569156 4.35751249,16.6375208 L5.55483789,18.5858257 L3.94683567,18.5858257 L3.94659466,18.5858257 Z M8.46476277,13.4808042 C7.73740205,13.4808042 7.33829359,14.0558482 7.33829359,15.0179502 L9.53290813,15.0179502 C9.53290813,14.0558482 9.11042194,13.4805632 8.46476277,13.4805632 L8.46476277,13.4808042 Z M7.32648422,15.9687249 L7.32648422,16.0627179 C7.32648422,16.8840715 7.63159975,17.7526627 8.79349704,17.7526627 C9.34516327,17.7526627 9.82621429,17.5528674 10.2723192,17.1658093 L10.776748,17.9519759 C10.1549486,18.4800234 9.4391562,18.7383834 8.64093927,18.7383834 C6.96256285,18.7383834 5.90646787,17.5294897 5.90646787,15.6284223 C5.90646787,14.5836547 6.12939983,13.8912401 6.64587896,13.3046277 C7.12692999,12.7529615 7.71378332,12.5066518 8.46476277,12.5066518 C9.0516161,12.5066518 9.59147296,12.6592096 10.0963837,13.1168829 C10.6126219,13.5863655 10.8707409,14.3139673 10.8707409,15.6987965 L10.8707409,15.9687249 L7.32648422,15.9687249 L7.32648422,15.9687249 Z M13.2880464,18.7147647 C11.9854007,18.7147647 11.9854007,17.541058 11.9854007,17.0366293 L11.9854007,11.9783633 C11.9854007,11.168578 11.9502136,10.7342825 11.8680301,10.2414221 L13.1940535,9.9481159 C13.2880464,10.3120373 13.2996148,10.8048977 13.2996148,11.5792548 L13.2996148,16.6141431 C13.2996148,17.412119 13.3348019,17.541299 13.4287948,17.6822885 C13.499169,17.7878498 13.6987232,17.8461736 13.851281,17.7760404 L14.0624036,18.5737753 C13.8279033,18.6677682 13.5813526,18.7147647 13.2880464,18.7147647 M14.8839983,18.5858257 L14.8839983,12.7413931 L16.1866439,12.5066518 L16.1866439,18.5858257 L14.8839983,18.5858257 Z M15.5294164,11.7672407 C15.0599338,11.7672407 14.6960124,11.3799416 14.6960124,10.910459 C14.6960124,10.4294079 15.0715021,10.0421088 15.5527941,10.0421088 C16.0104674,10.0421088 16.3977665,10.4175986 16.3977665,10.910459 C16.3977665,11.3799416 16.0104674,11.7672407 15.5294164,11.7672407 Z M19.8832174,18.7383834 C18.2636468,18.7383834 17.3598686,17.6001049 17.3598686,15.6869871 C17.3598686,13.5275597 18.6509459,12.4948424 19.9772103,12.4948424 C20.6226285,12.4948424 21.0918701,12.6474002 21.6199176,13.1402606 L20.9744995,13.9970424 C20.6226285,13.6801175 20.317513,13.5391281 19.9769693,13.5391281 C19.5662925,13.5391281 19.2259899,13.7504917 19.038245,14.1377908 C18.8623095,14.5017121 18.7916943,15.0533783 18.7916943,15.7925484 C18.7916943,16.6023337 18.9208743,17.1188129 19.1908028,17.412119 C19.3785476,17.6234826 19.6600444,17.7526627 19.9769693,17.7526627 C20.3878872,17.7526627 20.7867546,17.5528674 21.1740537,17.1658093 L21.7842848,17.9519759 C21.2444279,18.4918327 20.6811933,18.7383834 19.8832174,18.7383834 M22.9536533,17.5208134 C22.9177109,17.510931 22.880543,17.5062241 22.8432718,17.506835 L22.7728976,17.506835 L22.7728976,17.7714612 L22.8386927,17.7714612 C22.9230453,17.7714612 22.9604015,17.7620619 22.9861893,17.7386842 C23.0111908,17.7121429 23.0247026,17.6768041 23.0237865,17.6403531 C23.0237865,17.5793782 23.0004087,17.539612 22.9534123,17.5208134 L22.9536533,17.5208134 Z M23.0565635,18.3267426 C23.0189663,18.2611885 23.0025778,18.2351597 22.9649806,18.1652675 C22.8690596,17.989332 22.8386927,17.9401665 22.8035056,17.9261881 C22.7940476,17.9213116 22.783538,17.918829 22.7728976,17.9189578 L22.7728976,18.3267426 L22.5808146,18.3267426 L22.5808146,17.3496981 L22.944013,17.3496981 C23.1175384,17.3496981 23.232258,17.4646587 23.232258,17.635533 C23.232258,17.7832706 23.1339269,17.9025693 23.0143872,17.9049794 C23.0294198,17.9172496 23.042788,17.9314279 23.0541534,17.9471557 C23.1103082,18.0175299 23.2884127,18.3267426 23.2884127,18.3267426 L23.0565635,18.3267426 L23.0565635,18.3267426 Z M22.8854482,17.1458057 C22.5152606,17.1458057 22.2178573,17.4550184 22.2178573,17.8440045 C22.2178573,18.2329907 22.5152606,18.5470235 22.8854482,18.5470235 C23.2556357,18.5470235 23.5554491,18.2329907 23.5554491,17.8440045 C23.5554491,17.4550184 23.2556357,17.1458057 22.8854482,17.1458057 Z M22.8854482,18.7157287 C22.6547528,18.7155391 22.4336314,18.6234816 22.270958,18.4599037 C22.1082846,18.2963258 22.0174546,18.0746973 22.0185344,17.8440045 C22.0179041,17.6134701 22.1088866,17.392127 22.2714698,17.2286851 C22.4340529,17.0652432 22.6549135,16.9730958 22.8854482,16.9725213 C23.1159828,16.9730958 23.3368434,17.0652432 23.4994266,17.2286851 C23.6620097,17.392127 23.7529923,17.6134701 23.7523619,17.8440045 C23.7534417,18.0746973 23.6626117,18.2963258 23.4999383,18.4599037 C23.3372649,18.6234816 23.1161435,18.7155391 22.8854482,18.7157287 L22.8854482,18.7157287 Z" id="Shape"></path>
                    </g>
                </g>
            </g>
        </g>
    </g>
</svg>