<svg width="15px" height="15px" class="draft">
    <path fill-rule="evenodd" fill="rgb(0, 113, 234)" d="M7.500,15.000 C3.375,15.000 -0.000,11.625 -0.000,7.500 C-0.000,3.375 3.375,-0.000 7.500,-0.000 C11.625,-0.000 15.000,3.375 15.000,7.500 C15.000,11.625 11.625,15.000 7.500,15.000 ZM7.500,1.500 C4.200,1.500 1.500,4.200 1.500,7.500 C1.500,10.800 4.200,13.500 7.500,13.500 C10.800,13.500 13.500,10.800 13.500,7.500 C13.500,4.200 10.800,1.500 7.500,1.500 ZM6.750,6.750 L8.250,6.750 L8.250,11.250 L6.750,11.250 L6.750,6.750 ZM6.750,3.750 L8.250,3.750 L8.250,5.250 L6.750,5.250 L6.750,3.750 Z"></path>
</svg>
