<?xml version="1.0" encoding="UTF-8"?>
<svg width="50px" height="50px" viewBox="0 0 50 50" version="1.1" xmlns="http://www.w3.org/2000/svg" xmlns:xlink="http://www.w3.org/1999/xlink">
    <!-- Generator: sketchtool 63.1 (101010) - https://sketch.com -->
    <title>1AA925C7-6F11-44FA-85E3-FCF312910CF9</title>
    <desc>Created with sketchtool.</desc>
    <g id="Page-1" stroke="none" stroke-width="1" fill="none" fill-rule="evenodd">
        <g id="01_Integrations_UI" transform="translate(-1547.000000, -209.000000)" fill-rule="nonzero">
            <g id="Group-6" transform="translate(1522.000000, 184.000000)">
                <g id="opsgenie" transform="translate(25.000000, 25.000000)">
                    <path d="M50,25 C50,38.8070313 38.8070313,50 25,50 C11.1929688,50 0,38.8070313 0,25 C0,11.1929688 11.1929688,0 25,0 C38.8070313,0 50,11.1929688 50,25" id="Path" fill="#FC8E2E"></path>
                    <path d="M19.4085937,26.4242187 C20.0933594,25.8962891 20.6193359,25.2519531 20.9707031,24.4501953 C19.9697266,25.0722656 19.0560547,25.7316406 18.0636719,26.2367187 C16.2951172,27.1367188 14.3708984,27.5294922 12.4076172,27.7449219 C11.2789063,27.8689453 10.1722656,28.0896484 9.16269531,28.6431641 C7.92773437,29.3201172 7.29082031,30.3554688 7.359375,31.7785156 C7.446875,33.5908203 8.284375,35.1134766 9.18671875,36.6162109 C9.16230469,35.2337891 9.07929687,33.9300781 9.13066406,32.6318359 C9.20214844,30.821875 10.1345703,29.6419922 11.9224609,29.1693359 C13.2146484,28.8277344 14.5011719,28.4638672 15.7841797,28.0886719 C17.0720703,27.7121094 18.3283203,27.2570312 19.4085937,26.4242187 Z M40.4552734,28.4984375 C39.5605469,28.1316406 38.5855469,27.8873047 37.6244141,27.76875 C34.4791016,27.3804687 31.5199219,26.5710937 29.0830078,24.3859375 C29.0621094,24.4728516 29.0238281,24.5373047 29.040625,24.5800781 C29.0949219,24.7167969 29.1615234,24.8503906 29.2373047,24.9765625 C29.8398438,25.9785156 30.7025391,26.7115234 31.7554687,27.1679688 C32.7591797,27.603125 33.8083984,27.9392578 34.8515625,28.2755859 C36.1498047,28.6941406 37.4673828,29.0523438 38.7671875,29.4664063 C39.7582031,29.7822266 40.4566406,30.4658203 40.6583984,31.44375 C40.8542969,32.3931641 40.9296875,33.4654297 40.9488281,34.4382813 C40.9630859,35.1580078 40.9041016,36.0919922 40.6564453,36.5695313 C41.6275391,35.2193359 42.3822266,33.7818359 42.5677734,32.1275391 C42.7603516,30.4113281 42.0603516,29.1564453 40.4552734,28.4984375 L40.4552734,28.4984375 Z M23.0257812,33.9242188 C24.9935601,33.5832896 27.0067951,33.601288 28.9681641,33.9773437 C30.6167969,34.2923828 31.9425781,34.5947266 33.6857422,35.4886719 C31.5556641,34.1462891 28.3052734,32.5984375 25.759375,32.6337891 C22.5691406,32.678125 19.1898438,33.9582031 16.4330078,35.5556641 C17.9136719,35.1248047 20.8705078,34.2990234 23.0257812,33.9242188 Z M19.2640625,16.85 C18.8083984,15.2263672 18.6318359,13.5697266 18.84375,11.8982422 C19.1595703,9.40859375 20.6289062,7.76601563 22.4447266,6.50332031 C20.25625,6.85019531 17.7291016,9.46875 17.5466797,11.6919922 C17.3390625,14.2232422 18.3046875,16.3923828 19.7041016,18.3810547 C19.5572266,17.8707031 19.4076172,17.3611328 19.2640625,16.85 L19.2640625,16.85 Z M31.3234375,42.9414063 C32.4896484,43.3859375 33.3199219,42.8035156 34.4228516,42.3091797 C31.1705078,41.5996094 28.3279297,40.1503906 25.7882812,38.3441406 C27.0917969,40.4720703 29.0042969,42.0576172 31.3234375,42.9414063 L31.3234375,42.9414063 Z M18.3427734,43.2478516 C21.2248047,42.5583984 23.4878906,40.7853516 25.0818359,38.3939453 C22.4847656,40.2166016 19.5076172,41.6162109 16.1902344,42.3197266 L18.3427734,43.2478516 Z M29.5755859,19.7291016 C31.7236328,18.1130859 32.7248047,16.1800781 32.8365234,12.7160156 C32.2777344,14.9285156 31.4113281,16.8498047 30.1771484,18.3701172 C29.8251953,15.4080078 29.1490234,13.8333984 25.796875,13.0289062 C28.9033203,14.6603516 29.4291016,17.0876953 29.5755859,19.7291016 Z M25.4001953,9.05898438 C24.9246094,8.48203125 24.3378906,8.37988281 23.8595703,8.95683594 C23.2367187,9.70859375 23.1789062,11.3455078 23.746875,12.153125 C24.1789062,12.7677734 24.9703125,12.8019531 25.3396484,12.153125 C25.7863281,11.3683594 25.8318359,9.58261719 25.4001953,9.05898438 Z M24.5007812,23.33125 C21.371875,19.8226563 21.0591797,17.6326172 22.8693359,13.6322266 C19.5394531,17.3867188 20.2322266,20.7835938 24.5007812,23.33125 L24.5007812,23.33125 Z M20.5310547,32.3279297 C19.1105469,31.8345703 17.6753906,31.6992188 16.2177734,31.8558594 C14.3574219,32.0554688 13.0857422,33.1626953 12.7929687,34.8699219 C14.9037109,32.4695313 17.6242187,32.1111328 20.5310547,32.3279297 Z M25.0978516,5.55371094 C26.0578125,4.1125 25.0644531,2.8875 25.0644531,2.8875 C25.0644531,2.8875 25.1066406,3.92851563 24.2595703,5.2109375 C23.4125,6.49355469 25.0644531,7.51933594 25.0644531,7.51933594 C25.0644531,7.51933594 24.4828125,6.47695313 25.0978516,5.55371094 Z M32.7695312,10.7494141 C32.5601562,8.01308594 29.3568359,5.85234375 26.6693359,6.41699219 C29.0761719,7.36523438 31.3546875,8.39003906 32.7695312,10.7494141 Z" id="Shape" fill="#FFFFFF"></path>
                </g>
            </g>
        </g>
    </g>
</svg>