<svg height="16px" viewBox="0 0 512 512" width="16px">
    <g>
        <path
                d="m452.667 39.333h-58.667v-19.333c0-11.046-8.954-20-20-20h-314.667c-11.046 0-20 8.954-20 20v472c0 11.046 8.954 20 20 20h314.667c11.046 0 20-8.954 20-20v-19.333h58.667c11.046 0 20-8.954 20-20v-393.334c0-11.046-8.954-20-20-20zm-58.667 138.171h38.667v58.496h-38.667zm0 98.496h38.667v58.496h-38.667zm38.667-196.667v58.171h-38.667v-58.171zm-78.667 392.667h-274.667v-432h274.667zm40-39.333v-58.171h38.667v58.171zm-78.667-294.667c0 11.046-8.954 20-20 20h-157.333c-11.046 0-20-8.954-20-20s8.954-20 20-20h157.333c11.046 0 20 8.954 20 20zm-39.333 78.667c0 11.046-8.954 20-20 20h-78.667c-11.046 0-20-8.954-20-20s8.954-20 20-20h78.667c11.046 0 20 8.954 20 20zm0 157.333c0 11.046-8.954 20-20 20h-78.667c-11.046 0-20-8.954-20-20s8.954-20 20-20h78.667c11.046 0 20 8.954 20 20z"></path>
    </g>
</svg>
