<?xml version="1.0" encoding="UTF-8"?>
<svg width="80px" height="80px" viewBox="0 0 80 80" version="1.1" xmlns="http://www.w3.org/2000/svg" xmlns:xlink="http://www.w3.org/1999/xlink">
    <!-- Generator: sketchtool 63.1 (101010) - https://sketch.com -->
    <title>D5AC724C-6FFB-4C06-AB05-0A62DFF3C3AF</title>
    <desc>Created with sketchtool.</desc>
    <g id="Page-1" stroke="none" stroke-width="1" fill="none" fill-rule="evenodd">
        <g id="02_Search-Empty" transform="translate(-920.000000, -750.000000)" fill="#FDBD61" fill-rule="nonzero">
            <g id="sad" transform="translate(920.000000, 750.000000)">
                <path d="M40,0 C17.9443478,0 0,17.9443478 0,40 C0,62.0556522 17.9443478,80 40,80 C62.0573913,80 80,62.0556522 80,40 C80,17.9443478 62.0573913,0 40,0 Z M40,76.5217391 C19.8608696,76.5217391 3.47826087,60.1391304 3.47826087,40 C3.47826087,19.8608696 19.8608696,3.47826087 40,3.47826087 C60.1373913,3.47826087 76.5217391,19.8608696 76.5217391,40 C76.5217391,60.1391304 60.1373913,76.5217391 40,76.5217391 Z" id="Shape"></path>
                <path d="M31.3043478,33.0434783 C31.3043478,30.1669565 28.9634783,27.826087 26.0869565,27.826087 C23.2104348,27.826087 20.8695652,30.1669565 20.8695652,33.0434783 C20.8695652,35.92 23.2104348,38.2608696 26.0869565,38.2608696 C28.9634783,38.2608696 31.3043478,35.92 31.3043478,33.0434783 Z M24.3478261,33.0434783 C24.3478261,32.0852174 25.1286957,31.3043478 26.0869565,31.3043478 C27.0452174,31.3043478 27.826087,32.0852174 27.826087,33.0434783 C27.826087,34.0017391 27.0452174,34.7826087 26.0869565,34.7826087 C25.1286957,34.7826087 24.3478261,34.0017391 24.3478261,33.0434783 Z" id="Shape"></path>
                <path d="M53.9130435,27.826087 C51.0365217,27.826087 48.6956522,30.1669565 48.6956522,33.0434783 C48.6956522,35.92 51.0365217,38.2608696 53.9130435,38.2608696 C56.7895652,38.2608696 59.1304348,35.92 59.1304348,33.0434783 C59.1304348,30.1669565 56.7895652,27.826087 53.9130435,27.826087 Z M53.9130435,34.7826087 C52.9530435,34.7826087 52.173913,34.0017391 52.173913,33.0434783 C52.173913,32.0852174 52.9530435,31.3043478 53.9130435,31.3043478 C54.8730435,31.3043478 55.6521739,32.0852174 55.6521739,33.0434783 C55.6521739,34.0017391 54.8730435,34.7826087 53.9130435,34.7826087 Z" id="Shape"></path>
                <path d="M40,48.6956522 C33.5165217,48.6956522 27.3391304,51.4417391 23.0521739,56.2313043 C22.4121739,56.9478261 22.4730435,58.0469565 23.1878261,58.6869565 C23.9043478,59.3286957 25.0034783,59.266087 25.6434783,58.5513043 C29.2713043,54.4973913 34.5043478,52.173913 40,52.173913 C45.4956522,52.173913 50.7286957,54.4973913 54.3565217,58.5513043 C54.6991304,58.9356522 55.1756522,59.1304348 55.6521739,59.1304348 C56.0643478,59.1304348 56.4817391,58.9843478 56.8121739,58.6869565 C57.5269565,58.0469565 57.5878261,56.9478261 56.9478261,56.2313043 C52.6608696,51.4434783 46.4852174,48.6956522 40,48.6956522 Z" id="Path"></path>
            </g>
        </g>
    </g>
</svg>