<?xml version="1.0" encoding="UTF-8"?>
<svg width="50px" height="51px" viewBox="0 0 50 51" version="1.1" xmlns="http://www.w3.org/2000/svg" xmlns:xlink="http://www.w3.org/1999/xlink">
    <!-- Generator: sketchtool 63.1 (101010) - https://sketch.com -->
    <title>0FE196C4-4A66-44F5-BE08-D25DECF03C90</title>
    <desc>Created with sketchtool.</desc>
    <g id="Page-1" stroke="none" stroke-width="1" fill="none" fill-rule="evenodd">
        <g id="01_Integrations_UI" transform="translate(-75.000000, -209.000000)" fill-rule="nonzero">
            <g id="Group-2" transform="translate(50.000000, 184.000000)">
                <g id="slack-new-logo" transform="translate(25.000000, 25.000000)">
                    <path d="M18.3292484,0 C15.565768,0.00204248366 13.3292484,2.24468954 13.3312895,5.00816993 C13.3292484,7.77165033 15.5678105,10.0142974 18.3312895,10.0163399 L23.3312895,10.0163399 L23.3312895,5.01021242 C23.3333333,2.24673203 21.0947712,0.00408496732 18.3292484,0 C18.3312895,0 18.3312895,0 18.3292484,0 M18.3292484,13.3578431 L4.99999442,13.3578431 C2.23651961,13.3598856 -0.00204248366,15.6025327 -5.58185475e-06,18.3660131 C-0.00408496732,21.1294935 2.23447712,23.3721405 4.99795752,23.3762255 L18.3292484,23.3762255 C21.0927288,23.374183 23.3312908,21.1315359 23.3292498,18.3680556 C23.3312908,15.6025327 21.0927288,13.3598856 18.3292484,13.3578431 Z" id="Shape" fill="#36C5F0"></path>
                    <path d="M49.9918287,18.3660131 C49.9938725,15.6025327 47.7553105,13.3598856 44.9918287,13.3578431 C42.2283497,13.3598856 39.9897876,15.6025327 39.9918287,18.3660131 L39.9918287,23.3762255 L44.9918287,23.3762255 C47.7553105,23.374183 49.9938725,21.1315359 49.9918287,18.3660131 Z M36.6605406,18.3660131 L36.6605406,5.00816993 C36.6625761,2.24673203 34.4260621,0.00408496732 31.6625761,0 C28.8991013,0.00204248366 26.6605392,2.24468954 26.6625761,5.00816993 L26.6625761,18.3660131 C26.6584967,21.1294935 28.8970588,23.3721405 31.6605392,23.3762255 C34.4240196,23.374183 36.6625761,21.1315359 36.6605406,18.3660131 Z" id="Shape" fill="#2EB67D"></path>
                    <path d="M31.6605378,50.0919118 C34.4240196,50.0898693 36.6625817,47.8472222 36.6605378,45.0837418 C36.6625817,42.3202614 34.4240196,40.0776144 31.6605378,40.0755719 L26.6605378,40.0755719 L26.6605378,45.0837418 C26.6584967,47.8451797 28.8970588,50.0878268 31.6605378,50.0919118 Z M31.6605392,36.7320261 L44.9918301,36.7320261 C47.7553105,36.7299837 49.9938725,34.4873366 49.9918356,31.7238562 C49.995915,28.9603758 47.7573529,26.7177288 44.9938725,26.7136438 L31.6625803,26.7136438 C28.8991013,26.7156863 26.6605392,28.9583333 26.6625803,31.7218137 C26.6605392,34.4873366 28.8970588,36.7299837 31.6605392,36.7320261 L31.6605392,36.7320261 Z" id="Shape" fill="#ECB22E"></path>
                    <path d="M-1.39657338e-06,31.7238562 C-0.00204248366,34.4873366 2.23651961,36.7299837 4.9999986,36.7320261 C7.76348039,36.7299837 10.0020425,34.4873366 9.9999986,31.7238562 L9.9999986,26.7156863 L4.9999986,26.7156863 C2.23651961,26.7177288 -0.00204248366,28.9603758 -1.39657338e-06,31.7238562 Z M13.3312853,31.7238562 L13.3312853,45.0816993 C13.3272059,47.8451797 15.565768,50.0878268 18.3292484,50.0919118 C21.0927288,50.0898693 23.3312853,47.8472222 23.3292539,45.0837418 L23.3292539,31.7279412 C23.3333333,28.9644608 21.0947712,26.7218137 18.3312853,26.7177288 C15.565768,26.7177288 13.3292484,28.9603758 13.3312853,31.7238562 C13.3312853,31.7238562 13.3312853,31.7258987 13.3312853,31.7238562" id="Shape" fill="#E01E5A"></path>
                </g>
            </g>
        </g>
    </g>
</svg>