<svg width="16px" height="16px">
    <path fill-rule="evenodd" stroke="rgb(0, 0, 0)" stroke-width="0px" stroke-linecap="butt" stroke-linejoin="miter" fill="rgb(0, 113, 234)" d="M8.000,16.000 C3.582,16.000 -0.000,12.418 -0.000,8.000 C-0.000,3.582 3.582,-0.000 8.000,-0.000 C12.418,-0.000 16.000,3.582 16.000,8.000 C16.000,12.418 12.418,16.000 8.000,16.000 ZM3.554,10.568 L3.554,12.444 L5.430,12.444 L10.860,6.963 L8.984,5.086 L3.554,10.568 ZM12.292,4.840 L11.157,3.704 C10.959,3.506 10.663,3.506 10.465,3.704 L9.577,4.593 L11.453,6.469 L12.292,5.531 C12.490,5.333 12.490,5.037 12.292,4.840 Z"></path>
</svg>