<svg width="15px" height="10px">
    <path fill-rule="evenodd" fill="rgb(15, 36, 58)"
          d="M10.909,10.000 L10.909,8.214 C10.909,7.214 10.364,6.357 9.545,5.786 C9.818,5.714 10.023,5.714 10.227,5.714 C11.795,5.714 15.000,6.571 15.000,8.214 L15.000,10.000 L10.909,10.000 ZM10.227,4.286 C9.068,4.286 8.182,3.357 8.182,2.143 C8.182,0.929 9.068,-0.000 10.227,-0.000 C11.386,-0.000 12.273,0.929 12.273,2.143 C12.273,3.357 11.386,4.286 10.227,4.286 ZM4.773,4.286 C3.614,4.286 2.727,3.357 2.727,2.143 C2.727,0.929 3.614,-0.000 4.773,-0.000 C5.932,-0.000 6.818,0.929 6.818,2.143 C6.818,3.357 5.932,4.286 4.773,4.286 ZM9.545,8.214 L9.545,10.000 L-0.000,10.000 L-0.000,8.214 C-0.000,6.571 3.205,5.714 4.773,5.714 C6.341,5.714 9.545,6.571 9.545,8.214 Z"></path>
</svg>
